<svg width="24" height="24" viewBox="0 0 24 24" fill="none" xmlns="http://www.w3.org/2000/svg">
<g id="Google svg">
<path id="Vector" d="M22.56 12.25C22.56 11.47 22.49 10.72 22.36 10H12V14.255H17.92C17.665 15.63 16.89 16.795 15.725 17.575V20.335H19.28C21.36 18.42 22.56 15.6 22.56 12.25Z" fill="#4285F4"/>
<path id="Vector_2" d="M11.9989 23C14.9689 23 17.4589 22.015 19.2789 20.335L15.7239 17.575C14.7389 18.235 13.4789 18.625 11.9989 18.625C9.13394 18.625 6.70894 16.69 5.84394 14.09H2.16895V16.94C3.97894 20.535 7.69894 23 11.9989 23Z" fill="#34A853"/>
<path id="Vector_3" d="M5.845 14.0901C5.625 13.4301 5.5 12.7251 5.5 12.0001C5.5 11.2751 5.625 10.5701 5.845 9.91012V7.06012H2.17C1.4 8.59298 0.999321 10.2847 1 12.0001C1 13.7751 1.425 15.4551 2.17 16.9401L5.845 14.0901Z" fill="#FBBC05"/>
<path id="Vector_4" d="M11.9989 5.37512C13.6139 5.37512 15.0639 5.93012 16.2039 7.02012L19.3589 3.86512C17.4539 2.09012 14.9639 1.00012 11.9989 1.00012C7.69894 1.00012 3.97894 3.46512 2.16895 7.06012L5.84394 9.91011C6.70894 7.31012 9.13394 5.37512 11.9989 5.37512Z" fill="#EA4335"/>
</g>
</svg>
